<mxfile host="app.diagrams.net" modified="2024-07-09T17:58:14.645Z" agent="Mozilla/5.0 (Windows NT 10.0; Win64; x64) AppleWebKit/537.36 (KHTML, like Gecko) Chrome/126.0.0.0 Safari/537.36" version="24.6.4" etag="QD9bOtE-ACleIqmsLEFN" type="github">
  <diagram name="Page-1" id="knouhbFsK5wXirzb1KyO">
    <mxGraphModel>
      <root>
        <mxCell id="0" />
        <mxCell id="1" parent="0" />
      </root>
    </mxGraphModel>
  </diagram>
</mxfile>
